<?xml version="1.0" encoding="UTF-8"?>
<svg xmlns="http://www.w3.org/2000/svg" xmlns:xlink="http://www.w3.org/1999/xlink" width="30px" height="30px" viewBox="0 0 30 30" version="1.1">
<g id="surface1">
<path style=" stroke:none;fill-rule:nonzero;fill:rgb(100%,100%,100%);fill-opacity:1;" d="M 2.578125 3.84375 C 1.652344 4.042969 0.824219 4.664062 0.394531 5.496094 C 0.261719 5.738281 0.175781 5.933594 0.1875 5.941406 C 0.191406 5.953125 3.253906 7.992188 6.972656 10.472656 C 11.519531 13.5 13.851562 15.019531 14.0625 15.09375 C 14.511719 15.253906 15.488281 15.253906 15.9375 15.09375 C 16.148438 15.019531 18.480469 13.5 23.027344 10.472656 C 26.746094 7.992188 29.808594 5.953125 29.8125 5.941406 C 29.824219 5.933594 29.738281 5.738281 29.605469 5.496094 C 29.167969 4.652344 28.347656 4.035156 27.394531 3.839844 C 26.792969 3.714844 3.164062 3.714844 2.578125 3.84375 Z M 2.578125 3.84375 "/>
<path style=" stroke:none;fill-rule:nonzero;fill:rgb(100%,100%,100%);fill-opacity:1;" d="M 0 15.65625 C 0 22.171875 0.0195312 23.402344 0.0898438 23.707031 C 0.398438 25.03125 1.441406 25.988281 2.800781 26.191406 C 3.066406 26.230469 7.171875 26.25 15.261719 26.238281 C 26.816406 26.222656 27.347656 26.214844 27.65625 26.113281 C 28.527344 25.824219 29.214844 25.253906 29.601562 24.515625 C 30.023438 23.714844 30 24.191406 29.988281 15.652344 L 29.972656 7.96875 L 23.691406 12.160156 C 20.230469 14.460938 17.25 16.425781 17.058594 16.523438 C 16.40625 16.847656 15.886719 16.957031 15 16.957031 C 14.132812 16.957031 13.589844 16.847656 12.996094 16.546875 C 12.832031 16.464844 9.855469 14.503906 6.378906 12.183594 C 2.90625 9.867188 0.046875 7.96875 0.03125 7.96875 C 0.0117188 7.96875 0 11.433594 0 15.65625 Z M 0 15.65625 "/>
</g>
</svg>
