<?xml version="1.0" encoding="UTF-8"?>
<svg xmlns="http://www.w3.org/2000/svg" xmlns:xlink="http://www.w3.org/1999/xlink" width="160px" height="160px" viewBox="0 0 160 160" version="1.1">
<g id="surface1">
<path style=" stroke:none;fill-rule:nonzero;fill:rgb(100%,100%,100%);fill-opacity:1;" d="M 80 4.527344 C 50.652344 4.527344 26.75 28.402344 26.75 57.777344 C 26.75 93.527344 75.5625 151.9375 77.652344 154.402344 C 78.222656 155.097656 79.089844 155.472656 79.972656 155.5 C 79.972656 155.5 79.972656 155.5 80 155.5 C 80.902344 155.5 81.75 155.097656 82.339844 154.410156 C 84.410156 152 133.25 94.535156 133.25 57.777344 C 133.25 28.402344 109.347656 4.527344 80 4.527344 Z M 79.714844 73.472656 C 70.597656 73.472656 63.214844 66.089844 63.214844 56.972656 C 63.214844 47.875 70.597656 40.472656 79.714844 40.472656 C 88.785156 40.472656 96.214844 47.875 96.214844 56.972656 C 96.214844 66.089844 88.777344 73.472656 79.714844 73.472656 Z M 79.714844 73.472656 "/>
</g>
</svg>
