<?xml version="1.0" encoding="UTF-8"?>
<svg xmlns="http://www.w3.org/2000/svg" xmlns:xlink="http://www.w3.org/1999/xlink" width="120px" height="120px" viewBox="0 0 120 120" version="1.1">
<g id="surface1">
<path style=" stroke:none;fill-rule:nonzero;fill:rgb(100%,100%,100%);fill-opacity:1;" d="M 118.617188 109.261719 L 116.039062 111.839844 L 115.007812 112.847656 C 113.386719 114.402344 110.578125 116.625 106.5 118.214844 C 104.175781 119.113281 101.894531 119.699219 99.558594 119.953125 C 99.257812 119.980469 70.078125 122.488281 33.972656 86.269531 C 3.269531 55.472656 -1.652344 37.722656 0.402344 20.535156 C 0.675781 18.257812 1.230469 15.960938 2.144531 13.558594 C 3.75 9.433594 5.972656 6.632812 7.5 4.992188 L 11.066406 1.394531 C 12.796875 -0.328125 15.464844 -0.464844 17.039062 1.105469 L 37.558594 21.691406 C 39.136719 23.269531 39 25.964844 37.277344 27.691406 L 23.433594 41.566406 L 24.703125 43.722656 C 25.425781 44.925781 26.160156 46.277344 26.972656 47.730469 C 30.777344 54.613281 35.980469 64.066406 46.066406 74.144531 C 56.113281 84.222656 65.507812 89.441406 72.347656 93.257812 C 73.816406 94.066406 75.183594 94.828125 76.394531 95.550781 L 78.558594 96.824219 L 92.402344 82.949219 C 94.125 81.222656 96.808594 81.105469 98.386719 82.664062 L 118.894531 103.242188 C 120.480469 104.835938 120.347656 107.519531 118.617188 109.261719 Z M 118.617188 109.261719 "/>
</g>
</svg>
