<?xml version="1.0" encoding="UTF-8"?>
<svg xmlns="http://www.w3.org/2000/svg" xmlns:xlink="http://www.w3.org/1999/xlink" width="80px" height="80px" viewBox="0 0 80 80" version="1.1">
<g id="surface1">
<path style=" stroke:none;fill-rule:nonzero;fill:rgb(100%,100%,100%);fill-opacity:1;" d="M 79.078125 72.839844 L 77.359375 74.558594 L 76.671875 75.230469 C 75.589844 76.269531 73.71875 77.75 71 78.808594 C 69.449219 79.410156 67.929688 79.800781 66.371094 79.96875 C 66.171875 79.988281 46.71875 81.660156 22.648438 57.511719 C 2.179688 36.980469 -1.101562 25.148438 0.269531 13.691406 C 0.449219 12.171875 0.820312 10.640625 1.429688 9.039062 C 2.5 6.289062 3.980469 4.421875 5 3.328125 L 7.378906 0.929688 C 8.53125 -0.21875 10.308594 -0.308594 11.359375 0.738281 L 25.039062 14.460938 C 26.089844 15.511719 26 17.308594 24.851562 18.460938 L 15.621094 27.710938 L 16.46875 29.148438 C 16.949219 29.949219 17.441406 30.851562 17.980469 31.820312 C 20.519531 36.410156 23.988281 42.710938 30.710938 49.429688 C 37.410156 56.148438 43.671875 59.628906 48.230469 62.171875 C 49.210938 62.710938 50.121094 63.21875 50.929688 63.699219 L 52.371094 64.550781 L 61.601562 55.300781 C 62.75 54.148438 64.539062 54.070312 65.589844 55.109375 L 79.261719 68.828125 C 80.320312 69.890625 80.230469 71.679688 79.078125 72.839844 Z M 79.078125 72.839844 "/>
</g>
</svg>
